<svg xmlns="http://www.w3.org/2000/svg" width="142.857" height="40" viewBox="0 0 142.857 40"><path d="M61.512,36.547c.3.79.6,1.624.9,2.347,4.088,1.1,8.047,1.69,12.135.26a7.1,7.1,0,0,0,4.932-4.744c-.714-3.9-3.375-6.3-6.425-8.188-1.687,1.69-3.18,3.184-4.737,4.679.519.715,1.1,1.495,1.687,2.274-2.466,3.639-5.516.975-8.307.845-.065.91-.13,1.69-.195,2.4l-.065-.065a2.656,2.656,0,0,1-2.4,2.924,21.564,21.564,0,0,1-5.386.26,5.505,5.505,0,0,1-4.867-5.264c-.389-5.134-.13-10.267-.195-15.141.519-.39.714-.585.909-.585,6.749-.78,6.23.78,6.165,5.393-.065,3.639,0,7.278,0,10.657C57.336,36.858,59.516,36.306,61.512,36.547ZM9.654,23.948H1.412c-.909-3.314-.195-6.5.973-9.682C6.863,2.569,21.01-.16,30.42,5.3a10.824,10.824,0,0,1,4.348,4.679c2.142,4.419-.065,8.123-5,8.383-3.18.13-5.776-.91-7.268-3.769-.649-1.3-.649-2.859-1.038-4.549a6.075,6.075,0,0,0-5.321.78,12.688,12.688,0,0,0-6.49,10.917ZM119.846,39.414c-3.439.065-6.23-.195-8.631-1.755a7.791,7.791,0,0,1-3.634-7.148c.065-7.213,0-14.491,0-21.7V6.143c-1.038-1.819-2.791-1.3-4.413-1.884-.065-.975-.13-2.014-.195-3.054C105.634-.42,108.23-.225,110.89.75c2.6.91,3.245,1.884,3.245,4.874,0,7.473,0,14.946-.065,22.354v3.249c.065,2.924.714,3.769,3.634,4.354.519.13,1.038.195,1.882.325C119.651,37.01,119.716,37.984,119.846,39.414ZM143.857,35.9v3.184c-4.024,1.3-8.826-.26-10.773-3.639a7.5,7.5,0,0,1-.909-3.379c-.13-2.924-.065-5.848-.065-8.773V19.984c-1.428-.26-2.531-.455-3.7-.585-1.233-1.235-.844-2.534-.454-3.964,1.168-.195,2.206-.455,3.569-.715,0-1.17.065-2.4.065-3.7.065-2.534.779-3.249,3.31-3.249a20.445,20.445,0,0,1,3.05.455c.065,2.4.195,4.614.26,6.953,1.3.195,2.336.325,3.375.52,1.1,1.1,1.1,2.209.195,3.639-1.038.195-2.142.325-3.569.585-.065,1.3-.13,2.6-.13,3.834v7.473c0,3.119.779,3.964,3.764,4.484C142.494,35.775,143.014,35.84,143.857,35.9Zm-111.166-.26c.519,1.755-.195,2.4-1.168,2.729a13.176,13.176,0,0,1-3.7,1.04C20.816,40,14,39.414,8.1,35a16.283,16.283,0,0,1-6.425-9.227c2.79-.78,5.386-.26,8.242-.325C14.651,35.06,23.152,36.555,32.692,35.645Zm14.926-16.83a4.685,4.685,0,0,1,.195,1.495,5.12,5.12,0,0,1-.26,1.3c-.909.39-1.817.715-2.726,1.1-3.7,1.884-5.386,5.978-3.894,9.487A6.858,6.858,0,0,0,46,36.36c1.622.39,2.142,1.235,1.687,2.794-4.932,1.495-11.227-.91-13.693-5.264a8.969,8.969,0,0,1,1.3-10.527C38.532,19.854,42.621,18.62,47.618,18.815Zm46.27.065v2.794c-3.894,1.3-7.138,3.314-7.009,7.993.065,4.354,3.245,5.978,6.944,7.278v2.274a1.623,1.623,0,0,1-.714.325c-4.348.195-8.307-.715-11.486-4.029a8.989,8.989,0,0,1-.195-11.762C84.543,20.179,88.177,18.685,93.888,18.88ZM107.97,36.555c-.519.975-.714,1.819-1.168,2.144-2.336,1.755-7.528,1.3-9.669-.715a5.261,5.261,0,0,1-1.882-3.964c0-4.939,0-9.942.065-14.881,0-.195.195-.39.26-.52.065-.065.13-.195.26-.195,6.944-.455,5.97,0,6.035,5.393v8.123c0,3.249.779,4.094,4.153,4.484A8.109,8.109,0,0,1,107.97,36.555Zm11.811-17.87h6.425c.195,5.783-.065,11.372.13,16.57,1.493,1.819,3.31,1.69,4.867,1.884.584,1.365.195,2.209-.973,2.4A11.25,11.25,0,0,1,121.4,37.4a4.984,4.984,0,0,1-1.557-3.314C119.716,28.952,119.781,23.883,119.781,18.685ZM66.762,30.511A14.558,14.558,0,0,1,61.31,25.7c-1.882-3.054-1.1-5.848,2.077-7.473a11.983,11.983,0,0,1,3.375-1.04,20.688,20.688,0,0,1,10.838.975v4.484c-5.646-1.365-5.646-1.365-7.852.975.584.65,1.168,1.365,1.752,2.079C70.006,27.262,68.449,28.822,66.762,30.511Zm59.574-16.96a3.39,3.39,0,0,1-3.115,3.379,3.006,3.006,0,0,1-3.375-2.989,3.619,3.619,0,0,1,3.05-3.509A3.665,3.665,0,0,1,126.335,13.551Z" transform="translate(-1)" fill="#ff2020"/></svg>