<svg xmlns="http://www.w3.org/2000/svg" width="19.385" height="18" viewBox="0 0 19.385 18"><g transform="translate(-1 -2)"><path d="M4.965,2A3.991,3.991,0,0,0,1,6V17.231h9.692V20h1.385V17.231h8.308V6A3.988,3.988,0,0,0,16.42,2Zm0,1.385h.379A2.583,2.583,0,0,1,7.923,6v9.849H2.385V5.992A2.589,2.589,0,0,1,4.965,3.385Zm3.348,0H16.42A2.587,2.587,0,0,1,19,6v9.849H9.308V6A3.974,3.974,0,0,0,8.313,3.385Zm2.38,2.769V7.538h5.538V8.923h1.385V6.154ZM3.769,7.538V8.923H6.538V7.538Z" fill="rgba(0,0,0,0.54)"/></g></svg>