<svg xmlns="http://www.w3.org/2000/svg" width="13.05" height="18" viewBox="0 0 13.05 18"><path d="M9.525,1A6.538,6.538,0,0,0,3,7.525a7.864,7.864,0,0,0,.984,3.283A30.394,30.394,0,0,0,6.048,14.32c1.489,2.238,2.972,4.058,2.972,4.058l.5.622.5-.622s1.483-1.82,2.977-4.058a31.1,31.1,0,0,0,2.059-3.512,7.864,7.864,0,0,0,.984-3.283A6.538,6.538,0,0,0,9.525,1Zm0,1.305a5.211,5.211,0,0,1,5.22,5.22,7.282,7.282,0,0,1-.851,2.712A31.184,31.184,0,0,1,11.921,13.6c-1.2,1.794-2.014,2.783-2.4,3.263-.382-.479-1.2-1.468-2.4-3.263a31.184,31.184,0,0,1-1.973-3.364,7.282,7.282,0,0,1-.851-2.712A5.211,5.211,0,0,1,9.525,2.305Zm0,3.915A1.305,1.305,0,1,0,10.83,7.525,1.308,1.308,0,0,0,9.525,6.22Z" transform="translate(-3 -1)" fill="rgba(0,0,0,0.54)"/></svg>