<?xml version="1.0" encoding="UTF-8"?>
<svg width="14px" height="14px" viewBox="0 0 14 14" version="1.1" xmlns="http://www.w3.org/2000/svg" xmlns:xlink="http://www.w3.org/1999/xlink">
    <!-- Generator: Sketch 51.3 (57544) - http://www.bohemiancoding.com/sketch -->
    <title>Shape.orionprv</title>
    <desc>Created with Sketch.</desc>
    <defs></defs>
    <g id="Wordpress-theme" stroke="none" stroke-width="1" fill="none" fill-rule="evenodd">
        <g id="Screenshot" transform="translate(-979.000000, -74.000000)" fill="#194AA8" fill-rule="nonzero">
            <g id="Header">
                <g id="Search-field" transform="translate(967.000000, 65.000000)">
                    <path d="M20.8286756,9 C17.9790799,9 15.6573512,11.3217284 15.6573512,14.1713244 C15.6573512,15.3960993 16.0987237,16.5160889 16.8140948,17.4034022 L12,22.217497 L12.782503,23 L17.5965978,18.1859052 C18.4839111,18.9012763 19.6039007,19.3426488 20.8286756,19.3426488 C23.6782713,19.3426488 26,17.0209201 26,14.1713244 C26,11.3217284 23.6782713,9 20.8286756,9 Z M20.8286756,10.0886999 C23.0898943,10.0886999 24.9113001,11.9101056 24.9113001,14.1713244 C24.9113001,16.4325432 23.0898943,18.253949 20.8286756,18.253949 C18.5674568,18.253949 16.746051,16.4325432 16.746051,14.1713244 C16.746051,11.9101056 18.5674568,10.0886999 20.8286756,10.0886999 Z" id="Shape"></path>
                </g>
            </g>
        </g>
    </g>
</svg>