<svg xmlns="http://www.w3.org/2000/svg" width="18" height="18" viewBox="0 0 18 18"><path d="M4.462,1A2.087,2.087,0,0,0,2.385,3.077V4.132L1,7.077v.154A2.081,2.081,0,0,0,2.385,9.178v7.745A2.087,2.087,0,0,0,4.462,19H15.538a2.087,2.087,0,0,0,2.077-2.077V9.178A2.081,2.081,0,0,0,19,7.231V7.077L17.615,4.132V3.077A2.087,2.087,0,0,0,15.538,1Zm0,1.385h.692V3.769H3.769V3.077A.683.683,0,0,1,4.462,2.385Zm2.077,0H7.923V3.769H6.538Zm2.769,0h6.231a.683.683,0,0,1,.692.692v.692H9.308ZM3.437,5.154H16.563l1,2.128a.668.668,0,0,1-.641.641.683.683,0,0,1-.692-.692V6.538H14.846v.692a.692.692,0,0,1-1.385,0V6.538H12.077v.692a.692.692,0,0,1-1.385,0V6.538H9.308v.692a.692.692,0,0,1-1.385,0V6.538H6.538v.692a.692.692,0,0,1-1.385,0V6.538H3.769v.692a.683.683,0,0,1-.692.692.668.668,0,0,1-.641-.641Zm1.025,3.61a2.035,2.035,0,0,0,2.769,0,2.035,2.035,0,0,0,2.769,0,2.035,2.035,0,0,0,2.769,0,2.035,2.035,0,0,0,2.769,0,2.075,2.075,0,0,0,.692.414v7.745a.683.683,0,0,1-.692.692H4.462a.683.683,0,0,1-.692-.692V9.181A2.116,2.116,0,0,0,4.462,8.764Z" transform="translate(-1 -1)" fill="rgba(0,0,0,0.54)"/></svg>